<svg xmlns="http://www.w3.org/2000/svg" xmlns:xlink="http://www.w3.org/1999/xlink" xml:space="preserve" version="1.1" style="shape-rendering:geometricPrecision;text-rendering:geometricPrecision;image-rendering:optimizeQuality;" viewBox="0 0 60000 75000" x="0px" y="0px" fill-rule="evenodd" clip-rule="evenodd"><defs><style type="text/css">
   
    .fil0 {fill:black;fill-rule:nonzero}
   
  </style></defs><g><path class="fil0" d="M34418 44382c9,259 -193,477 -453,486 -259,9 -477,-193 -486,-453 -25,-672 -50,-1347 -76,-2024 -1316,-148 -2227,220 -2740,800 -276,312 -437,687 -484,1074 -47,388 20,786 203,1142 375,729 1240,1291 2611,1270 965,-15 2063,-286 3107,-543 1154,-284 2245,-553 3135,-481 636,52 1399,400 1953,900 513,462 867,1064 834,1714 -117,2315 -2923,2563 -5142,2451 -658,-33 -1248,-96 -1687,-143 -144,-15 -274,-29 -316,-33 -385,-38 -933,-37 -1448,61 -331,64 -641,166 -863,322 -175,123 -295,285 -316,497 -8,82 -3,176 18,283 111,581 958,761 1900,778 1103,20 2326,-198 2906,-303 404,-73 927,-85 1410,6 354,67 693,189 967,382 312,220 537,524 611,932 34,189 34,394 -8,617 -283,1492 -1490,1459 -2547,1431 -103,-3 -204,-5 -288,-6l-26712 -238c-259,-2 -467,-214 -465,-473 2,-259 214,-467 473,-465l26712 238c107,1 204,4 303,6 685,18 1468,39 1601,-666 21,-109 22,-201 8,-279 -25,-136 -109,-245 -228,-328 -157,-111 -369,-184 -599,-228 -370,-70 -767,-62 -1071,-6 -610,111 -1895,340 -3086,318 -1352,-25 -2585,-377 -2808,-1540 -37,-195 -46,-379 -29,-552 51,-519 321,-900 713,-1174 344,-241 778,-391 1224,-476 610,-117 1259,-118 1716,-72 147,14 231,23 323,33 433,46 1013,108 1632,139 1804,91 4083,-47 4159,-1557 17,-336 -205,-682 -525,-971 -410,-369 -955,-625 -1398,-661 -745,-61 -1762,190 -2837,455 -1091,269 -2239,552 -3320,569 -1780,28 -2933,-759 -3457,-1778 -271,-527 -372,-1114 -303,-1683 69,-570 308,-1124 716,-1585 678,-766 1819,-1269 3407,-1127 -27,-699 -54,-1399 -81,-2095 -1129,107 -2265,-54 -3391,-740l-6 -4c-206,-125 -285,-389 -177,-609 1328,-2671 -524,-4521 -2815,-6810 -2694,-2692 -5949,-5945 -5872,-11756 94,-7117 3769,-11702 8473,-13750 1890,-823 3943,-1235 5994,-1235 2050,0 4103,412 5994,1235 4703,2048 8379,6633 8473,13750 76,5768 -3148,9000 -5825,11683 -899,901 -1735,1739 -2333,2569 -342,474 -692,778 -1031,925 -332,144 -652,149 -949,26 -273,-113 -508,-331 -694,-645 -277,-466 -458,-1173 -500,-2075 -100,-928 -167,-2096 -183,-3558 -13,-1297 14,-2818 97,-4595 3,-70 6,-141 9,-216 -375,-83 -824,-285 -1277,-582 -403,-264 -828,-602 -1216,-991 -388,389 -813,727 -1216,991 -453,296 -902,498 -1277,582 3,74 6,146 9,216 115,2456 258,5761 408,9434 67,1624 134,3321 202,5049 800,-178 1601,-460 2385,-737 2314,-817 4498,-1588 6377,136 157,109 306,258 439,440 289,393 510,958 555,1577 45,620 -84,1301 -496,1931 -213,326 -503,637 -883,916 -15,11 -30,21 -46,30 -2628,1594 -5048,908 -7171,306 -336,-95 -664,-188 -994,-271 23,605 45,1209 68,1812zm-1168 -5986c-69,-1763 -139,-3500 -207,-5166 -150,-3654 -292,-6957 -408,-9430 -6,-120 -11,-272 -17,-443 -994,-654 -1780,-1302 -2394,-1906 -855,-842 -1386,-1611 -1681,-2198 -473,-943 -242,-1856 309,-2504 210,-247 468,-454 751,-608 286,-156 599,-258 915,-291 773,-82 1557,224 2042,1105 761,1384 911,3969 973,5688 180,-85 463,-251 793,-467 372,-244 765,-557 1114,-914 -68,-91 -132,-184 -193,-279 -8,-11 -16,-22 -23,-33 -359,-566 -700,-1229 -903,-1929 -169,-584 -240,-1192 -145,-1789 138,-869 525,-1467 998,-1785 275,-185 578,-278 883,-278 304,0 607,93 883,278 473,318 860,916 998,1785 95,597 24,1205 -145,1789 -203,700 -544,1364 -903,1929l-1 -1 -9 14c-65,101 -134,201 -206,299 350,357 742,671 1114,914 330,216 613,382 793,467 63,-1719 212,-4303 973,-5688 484,-882 1269,-1187 2042,-1105 316,34 629,135 915,291 283,154 541,362 751,608 551,648 782,1561 309,2504 -294,587 -826,1356 -1681,2198 -614,605 -1400,1253 -2394,1906 -6,171 -11,323 -17,443 -83,1771 -111,3275 -97,4547 15,1419 81,2561 180,3472 2,17 3,33 3,49 34,746 167,1303 368,1640 80,134 163,221 245,255 58,24 131,18 217,-19 189,-82 407,-282 645,-613 646,-896 1505,-1757 2429,-2683 2551,-2557 5624,-5637 5553,-11010 -88,-6690 -3520,-10988 -7910,-12900 -1766,-769 -3691,-1154 -5618,-1154 -1927,0 -3852,385 -5618,1154 -4390,1912 -7822,6211 -7910,12900 -71,5415 3030,8514 5596,11079 2448,2446 4445,4443 3182,7482 811,394 1654,481 2508,396zm971 806c31,794 62,1592 92,2391 27,6 55,12 82,19 376,89 784,205 1203,324 1938,550 4148,1176 6424,-201 274,-204 482,-428 635,-661 287,-439 377,-915 345,-1350 -32,-435 -181,-823 -375,-1088 -74,-101 -152,-179 -227,-229l0 0c-22,-14 -43,-31 -63,-49 -1470,-1374 -3404,-691 -5455,33 -871,308 -1761,622 -2660,810zm-1645 -17012c-71,-1599 -241,-3695 -840,-4784 -272,-495 -700,-668 -1118,-623 -194,21 -387,84 -565,181 -181,99 -347,232 -482,391 -327,384 -465,924 -188,1478 255,508 726,1185 1501,1948 457,450 1016,926 1693,1410zm3481 -1684c11,-16 21,-32 32,-49l8 -13 -1 -1c321,-506 623,-1089 796,-1687 133,-461 191,-932 119,-1381 -94,-588 -322,-969 -593,-1152 -115,-77 -238,-116 -360,-116 -122,0 -245,39 -360,116 -272,183 -500,564 -593,1152 -72,449 -14,920 119,1381 173,597 475,1181 796,1687 6,10 12,21 18,31l20 31zm3481 1684c677,-484 1236,-960 1693,-1410 774,-763 1246,-1439 1501,-1948 278,-554 139,-1093 -188,-1478 -135,-159 -301,-293 -482,-391 -178,-97 -372,-160 -565,-181 -418,-44 -846,128 -1118,623 -599,1089 -769,3186 -840,4784z"/></g><text x="0" y="60015" fill="#000000" font-size="5px" font-weight="bold" font-family="'Helvetica Neue', Helvetica, Arial-Unicode, Arial, Sans-serif">Created by Olena Panasovska</text><text x="0" y="60020" fill="#000000" font-size="5px" font-weight="bold" font-family="'Helvetica Neue', Helvetica, Arial-Unicode, Arial, Sans-serif">from the Noun Project</text></svg>